<svg xmlns="http://www.w3.org/2000/svg" viewBox="0 0 476.944 476.944"><path d="M84.176 379.875c-26.762 0-48.535 21.772-48.535 48.534s21.772 48.534 48.535 48.534c26.762 0 48.534-21.772 48.534-48.534s-21.772-48.534-48.534-48.534zm0 67.069c-10.22 0-18.535-8.314-18.535-18.534s8.314-18.534 18.535-18.534c10.22 0 18.534 8.314 18.534 18.534s-8.314 18.534-18.534 18.534zM474.946 30V0h-61.624l-9.835 60H1.999l28.736 175.88c4.044 24.67 26.794 43.995 51.794 43.995h130.756c-.001.19-.007.38-.007.57 0 13.744 2.161 26.992 6.149 39.429H50.641v30H233.52c15.742 24.669 39.607 43.675 67.799 53.214a48.235 48.235 0 0 0-7.147 25.32c0 26.762 21.772 48.534 48.535 48.534 26.762 0 48.534-21.772 48.534-48.534a48.23 48.23 0 0 0-7.147-25.32c51.133-17.302 88.042-65.743 88.042-122.644 0-44.48-22.556-83.789-56.828-107.097L438.804 30h36.142zM361.241 428.41c0 10.22-8.314 18.534-18.534 18.534-10.221 0-18.535-8.314-18.535-18.534s8.314-18.534 18.535-18.534c10.22-.001 18.534 8.314 18.534 18.534zm80.895-147.964c0 54.826-44.604 99.43-99.429 99.43-54.826 0-99.431-44.604-99.431-99.43s44.604-99.429 99.431-99.429c54.825-.001 99.429 44.603 99.429 99.429zm-99.429-129.43c-60.839 0-112 42.197-125.773 98.859H82.529c-10.174 0-20.543-8.808-22.188-18.841L37.298 90h361.271l-11.298 68.924c-13.9-5.114-28.911-7.908-44.564-7.908z"/><path d="M357.707 218.83h-30v46.616h-46.616v30h46.616v46.616h30v-46.616h46.616v-30h-46.616z"/></svg>