<svg xmlns="http://www.w3.org/2000/svg" style="isolation:isolate" viewBox="0 0 540 360" width="720" height="480"><defs><clipPath id="a"><path d="M0 0h540v360H0z"/></clipPath></defs><g clip-path="url(#a)"><g fill="#0069FF"><path d="M502.903 210.496H487.05a.72.72 0 0 0-.716.724v28.552a.72.72 0 0 0 .716.724h15.853a.72.72 0 0 0 .716-.724V211.22a.72.72 0 0 0-.716-.724zm-.163 29.121h-15.527v-28.242h15.527v28.242z"/><path d="M488.171 213.65h.376v24.132a.44.44 0 0 0 .44.439h12.643a.44.44 0 1 0 0-.879h-.224v-24.131a.44.44 0 0 0-.44-.44h-12.795a.44.44 0 0 0 0 .879zm8.247 23.692h-5.207v-2.647h5.207v2.647zm4.109-6.882h-6.989a.44.44 0 1 0 0 .879h6.989v6.003h-3.23v-2.802a.72.72 0 0 0-.716-.724h-5.533a.72.72 0 0 0-.716.724v2.802h-.906v-6.003h2.452a.44.44 0 0 0 0-.879h-2.452v-1.396h11.101v1.396zm0-2.275h-1.016v-3.315a.72.72 0 0 0-.716-.723h-1.107a.71.71 0 0 0-.277.056.705.705 0 0 0-.276-.056h-1.107a.72.72 0 0 0-.716.723v1.552h-3.157a.721.721 0 0 0-.717.724v1.039h-2.012v-6.003h11.101v6.003zm-1.895-3.16v3.16h-.781v-3.16h.781zm-1.66 0v3.16h-.781v-3.16h.781zm-4.655 3.134v-.858h2.995v.884h-2.942a.326.326 0 0 0-.053-.026zm-2.891-14.509h11.101v5.378h-1.456a.439.439 0 1 0 0 .879h1.456v1.396h-11.101v-1.396h7.985a.44.44 0 0 0 0-.879h-2.88v-3.258a.722.722 0 0 0-.716-.724h-1.107a.693.693 0 0 0-.277.057.688.688 0 0 0-.276-.057h-1.107a.72.72 0 0 0-.716.724v3.258h-.906v-5.378zm1.785 5.378v-3.103h.781v3.103h-.781zm1.66 0v-3.103h.781v3.103h-.781z"/></g><g fill="#0069FF"><path d="M239.062 29.875h-1.706a.725.725 0 0 0-.724.724v7.245a1.36 1.36 0 0 0-.129-.006h-1.381V33.47a.744.744 0 0 0-.356-.638.745.745 0 0 0-.73-.033l-1.644.822c-.197.098-.418.15-.638.15h-2.531c-.221 0-.441-.052-.638-.15l-1.645-.822a.745.745 0 0 0-.73.033.744.744 0 0 0-.356.638v4.368h-2.676V34.58a.724.724 0 0 0-.724-.723h-1.137a.724.724 0 0 0-.724.723v2.12h-3.387v-2.12a.724.724 0 0 0-.724-.723h-1.137a.724.724 0 0 0-.724.723v3.258h-1.551c-.044 0-.087.002-.13.006v-7.245a.724.724 0 0 0-.723-.724h-1.707a.725.725 0 0 0-.724.724v28.552c0 .399.325.724.724.724h1.707a.724.724 0 0 0 .723-.724v-1.096h1.681v1.096c0 .399.325.724.724.724h1.137c.4 0 .724-.325.724-.724v-2.802h3.387v2.802c0 .399.325.724.724.724h1.138a.724.724 0 0 0 .723-.724v-1.096h13.454v1.096c0 .399.325.724.724.724h1.707a.724.724 0 0 0 .723-.724V30.599a.724.724 0 0 0-.724-.724zm-27 8.328c-.348.29-.569.726-.569 1.212v1.024c0 .486.221.922.569 1.211v9.066c-.348.29-.569.726-.569 1.212v1.024c0 .486.221.922.569 1.211v4.833h-1.397V30.754h1.397v7.449zm2.559 18.973h-1.681v-2.653c.043.003.086.006.13.006h1.551v2.647zm0-3.526h-1.551a.699.699 0 0 1-.698-.698v-1.024c0-.385.313-.698.698-.698h1.551v2.42zm0-3.299h-1.551c-.044 0-.087.002-.13.006v-6.818h1.681v6.812zm0-7.691h-1.681v-.65c.043.003.086.006.13.006h1.551v.644zm0-3.943v2.42h-1.551a.699.699 0 0 1-.698-.698v-1.024c0-.385.313-.698.698-.698h1.551zm7.678 20.279h-.827v-3.087a.439.439 0 0 0-.439-.439h-4.266a.44.44 0 0 0-.44.439v3.087h-.827V34.735h.827v2.405a.44.44 0 0 0 .44.439h4.266a.439.439 0 0 0 .439-.439v-2.405h.827v24.261zm.879-16.98h13.325a1.8 1.8 0 0 0 .129-.006v.65h-13.454v-.644zm0 1.523h13.454v6.818a1.36 1.36 0 0 0-.129-.006h-1.381v-4.182c0-.262-.133-.5-.356-.638a.745.745 0 0 0-.73-.033l-1.644.822a1.429 1.429 0 0 1-.638.151h-2.531c-.221 0-.441-.052-.638-.151l-1.645-.822a.745.745 0 0 0-.73.033.745.745 0 0 0-.356.638v4.182h-2.676v-6.812zm13.454 13.637h-13.454v-2.647h13.325a1.8 1.8 0 0 0 .129-.006v2.653zm.569-4.224a.699.699 0 0 1-.698.698h-13.325v-2.42h7.993a.44.44 0 0 0 0-.879h-4.438v-3.974l1.458.729c.319.159.676.244 1.032.244h2.531a2.32 2.32 0 0 0 1.031-.244l1.458-.729v3.974h-1.323a.44.44 0 1 0 0 .879h3.583c.385 0 .698.313.698.698v1.024zm0-12.513a.699.699 0 0 1-.698.698h-13.325v-2.42h8.073a.44.44 0 0 0 0-.879h-4.518v-4.16l1.459.729c.318.159.675.243 1.031.243h2.531c.356 0 .713-.084 1.031-.243l1.458-.729v4.16h-1.276a.439.439 0 1 0 0 .879h3.536c.385 0 .698.313.698.698v1.024zm1.706 18.557h-1.396v-4.833c.347-.289.569-.725.569-1.211v-1.024c0-.487-.222-.922-.569-1.212V41.65c.347-.289.569-.725.569-1.211v-1.024c0-.487-.222-.922-.569-1.212v-7.449h1.396v28.242z"/><path d="M221.033 42.673h-4.266a.44.44 0 0 0-.44.439v2.559c0 .243.197.44.44.44h4.266a.44.44 0 0 0 .439-.44v-2.559a.439.439 0 0 0-.439-.439zm-.44 2.559h-3.387v-1.681h3.387v1.681zM221.033 38.407h-4.266a.44.44 0 0 0-.44.439v2.56a.44.44 0 0 0 .44.439h4.266a.44.44 0 0 0 .439-.439v-2.56a.44.44 0 0 0-.439-.439zm-.44 2.559h-3.387v-1.68h3.387v1.68zM221.033 46.938h-4.266a.44.44 0 0 0-.44.44v2.559c0 .243.197.44.44.44h4.266a.44.44 0 0 0 .439-.44v-2.559a.44.44 0 0 0-.439-.44zm-.44 2.56h-3.387v-1.681h3.387v1.681zM221.033 51.204h-4.266a.44.44 0 0 0-.44.439v2.56a.44.44 0 0 0 .44.439h4.266a.439.439 0 0 0 .439-.439v-2.56a.44.44 0 0 0-.439-.439zm-.44 2.56h-3.387v-1.681h3.387v1.681z"/></g><g fill="#0069FF"><path d="M148.849 218.41h-2.234v-7.192a.723.723 0 0 0-.724-.722h-1.706a.724.724 0 0 0-.284.058.733.733 0 0 0-.285-.058h-1.706a.724.724 0 0 0-.724.722v4.931h-6.67a.724.724 0 0 0-.724.722v1.539h-4.228a2.4 2.4 0 0 0 .557-1.539 2.433 2.433 0 0 0-1.706-2.308v-1.492h.129a.44.44 0 0 0 0-.879H125.7a.439.439 0 1 0 0 .879h.129v1.492a2.433 2.433 0 0 0-1.706 2.308 2.4 2.4 0 0 0 .557 1.539h-4.383a.724.724 0 0 0-.724.722v6.218c0 .1.021.196.058.282a.723.723 0 0 0-.058.283v6.218c0 .398.325.722.724.722h4.628l-1.101 4.885a.718.718 0 0 0 .141.609.72.72 0 0 0 .566.272h1.722c.3 0 .573-.189.678-.469l1.989-5.297h11.306l1.988 5.297c.106.28.378.469.678.469h1.723a.721.721 0 0 0 .706-.881l-1.1-4.885h4.628a.724.724 0 0 0 .724-.722v-6.218c0-.1-.021-.196-.058-.283a.714.714 0 0 0 .058-.282v-6.218a.724.724 0 0 0-.724-.722zm-22.518-3.062a.44.44 0 0 0 .377-.435v-1.842h.828v1.842a.44.44 0 0 0 .377.435 1.549 1.549 0 0 1 1.329 1.523c0 .849-.696 1.539-1.551 1.539h-1.138a1.547 1.547 0 0 1-1.551-1.539c0-.761.571-1.415 1.329-1.523zm-.185 22.394h-1.421l1.101-4.887h2.155l-1.835 4.887zm7.987-5.766h-13.681v-5.904h13.681v5.904zm0-6.783h-13.681v-5.904h13.681v5.904zm10.207-13.818h1.396v7.035h-1.396v-7.035zm-2.275 0h1.396v7.035h-.827v-1.539a.723.723 0 0 0-.569-.705v-4.791zm2.355 26.367h-1.421l-1.834-4.887h2.155l1.1 4.887zm4.274-5.766h-13.682v-5.904h13.682v5.904zm0-6.783h-13.682v-5.904h3.789a.44.44 0 0 0 0-.879h-4.13v-1.382h7.084v1.382h-1.381a.439.439 0 1 0 0 .879h8.32v5.904z"/><path d="M126.147 228.333h2.696a.439.439 0 1 0 0-.879h-2.696a.44.44 0 0 0 0 .879zM139.863 221.11c0 .243.197.44.44.44h2.696a.44.44 0 0 0 0-.879h-2.696a.44.44 0 0 0-.44.439zM140.303 228.333h2.696a.439.439 0 1 0 0-.879h-2.696a.44.44 0 0 0 0 .879zM126.147 221.55h2.696a.44.44 0 0 0 0-.879h-2.696a.44.44 0 1 0 0 .879z"/></g><g fill="#0069FF"><path d="M132.775 137.497h3.596a.44.44 0 0 0 0-.879h-3.596a.44.44 0 1 0 0 .879z"/><path d="M147.035 120h-19.399a.44.44 0 0 0 0 .879h19.242v1.396h-24.61v-1.396h3.695a.44.44 0 0 0 0-.879h-3.852a.724.724 0 0 0-.722.724v1.706c0 .399.324.724.722.724h.694v23.244c0 .4.324.724.722.724h1.048a1.92 1.92 0 0 0-.169.789v.171c0 1.057.855 1.918 1.906 1.918h.169a1.915 1.915 0 0 0 1.906-1.918v-.171c0-.277-.059-.545-.168-.789h12.71c-.11.246-.17.515-.17.789v.171c0 1.057.855 1.918 1.906 1.918h.169a1.915 1.915 0 0 0 1.906-1.918v-.171c0-.275-.059-.543-.169-.789h1.048a.723.723 0 0 0 .721-.724V123.154h.695a.724.724 0 0 0 .722-.724v-1.706a.724.724 0 0 0-.722-.724zm-19.527 28.082c0 .573-.461 1.039-1.027 1.039h-.169a1.034 1.034 0 0 1-1.027-1.039v-.171c0-.306.132-.591.36-.789h1.504c.229.198.359.483.359.789v.171zm16.353 0c0 .573-.461 1.039-1.027 1.039h-.169a1.034 1.034 0 0 1-1.027-1.039v-.171c0-.293.123-.574.338-.771l.018-.018h1.51l.008.009c.222.198.349.482.349.78v.171zm1.601-1.839h-21.778v-10.811h21.778v10.811zm0-11.869v.179h-21.778v-4.871h21.778v4.692zm0-7.048v1.477h-21.778v-5.649h21.778v4.172z"/><path d="M132.775 125.429h3.596a.439.439 0 1 0 0-.879h-3.596a.44.44 0 0 0 0 .879zM132.775 131.747h3.596a.44.44 0 1 0 0-.879h-3.596a.44.44 0 0 0 0 .879z"/></g><g fill="#0069FF"><path d="M239.347 217.592a.44.44 0 1 0 0-.879h-1.267v-1.237h1.267a.438.438 0 1 0 0-.878H217.677a.44.44 0 1 0 0 .878h19.524v18.165h-24.829v-18.165h3.485a.438.438 0 1 0 0-.878h-5.631a.44.44 0 1 0 0 .878h1.267v1.238h-1.267a.44.44 0 1 0 0 .879h1.267v1.236h-1.267a.44.44 0 0 0 0 .879h1.267v1.237h-1.267a.44.44 0 0 0 0 .879h1.267v1.237h-1.267a.44.44 0 0 0 0 .879h1.267v1.237h-1.267a.44.44 0 0 0 0 .879h1.267v1.237h-1.267a.44.44 0 1 0 0 .879h1.267v1.237h-1.267a.44.44 0 1 0 0 .879h1.267v1.237h-1.267a.44.44 0 1 0 0 .879h1.267v1.237h-1.267a.44.44 0 1 0 0 .878h29.121a.438.438 0 1 0 0-.878h-1.267v-1.238h1.267a.44.44 0 1 0 0-.879h-1.267v-1.237h1.267a.438.438 0 1 0 0-.878h-1.267v-1.237h1.267a.44.44 0 0 0 0-.879h-1.267v-1.237h1.267a.44.44 0 0 0 0-.879h-1.267v-1.237h1.267a.44.44 0 0 0 0-.879h-1.267v-1.237h1.267a.439.439 0 1 0 0-.879h-1.267v-1.237h1.267a.44.44 0 1 0 0-.879h-1.267v-1.237h1.267z"/><path d="M229.776 224.558c0-1.304-1.06-2.369-2.374-2.399a2.708 2.708 0 0 0-2.616-1.961 2.708 2.708 0 0 0-2.615 1.961c-1.314.03-2.374 1.095-2.374 2.399 0 1.305 1.06 2.37 2.374 2.4a2.708 2.708 0 0 0 2.615 1.961 2.708 2.708 0 0 0 2.616-1.961c1.314-.03 2.374-1.095 2.374-2.4zm-2.43 1.521c-.079 0-.158-.006-.235-.017a.434.434 0 0 0-.332.086.434.434 0 0 0-.169.298c-.106.908-.89 1.594-1.824 1.594-.933 0-1.717-.686-1.823-1.594a.437.437 0 0 0-.501-.384 1.667 1.667 0 0 1-.235.017c-.855 0-1.551-.682-1.551-1.521 0-.838.696-1.52 1.551-1.52.079 0 .158.005.235.017a.44.44 0 0 0 .501-.384c.106-.908.89-1.594 1.823-1.594.934 0 1.718.686 1.824 1.594a.438.438 0 0 0 .501.384 1.53 1.53 0 0 1 .235-.017c.855 0 1.551.682 1.551 1.52 0 .839-.696 1.521-1.551 1.521zM215.531 224.558c0 .86.707 1.56 1.577 1.56s1.577-.7 1.577-1.56a1.57 1.57 0 0 0-1.577-1.559c-.87 0-1.577.7-1.577 1.559zm2.275 0a.69.69 0 0 1-.698.681.69.69 0 0 1-.698-.681.69.69 0 0 1 .698-.68.69.69 0 0 1 .698.68z"/><path d="M228.408 232.279h6.958a.44.44 0 0 0 .439-.439v-3.791-6.978-3.794a.44.44 0 0 0-.439-.439h-21.159a.44.44 0 0 0-.439.439v14.563a.44.44 0 0 0 .439.439h12.456a.44.44 0 1 0 0-.879h-8.002c.016-.133.024-.267.024-.401 0-1.94-1.6-3.52-3.568-3.52-.157 0-.315.011-.47.032v-5.905c.155.021.313.031.47.031 1.968 0 3.568-1.579 3.568-3.52 0-.133-.008-.267-.024-.4h12.251a3.342 3.342 0 0 0-.024.4c0 1.941 1.6 3.52 3.568 3.52.157 0 .315-.01.47-.031v5.905a3.523 3.523 0 0 0-.47-.032c-1.968 0-3.568 1.58-3.568 3.52 0 .134.008.268.024.401h-2.504a.44.44 0 0 0 0 .879zm-13.291-3.921c1.483 0 2.689 1.185 2.689 2.642 0 .134-.011.267-.032.4h-3.127v-3.001c.155-.027.312-.041.47-.041zm0-7.599c-.158 0-.315-.014-.47-.041v-3.001h3.127c.021.133.032.266.032.4 0 1.457-1.206 2.642-2.689 2.642zm19.809-.041a2.737 2.737 0 0 1-.47.041c-1.483 0-2.689-1.185-2.689-2.642 0-.134.011-.267.032-.4h3.127v3.001zm-.47 7.64c.158 0 .315.014.47.041v3.001h-3.127a2.558 2.558 0 0 1-.032-.4c0-1.457 1.206-2.642 2.689-2.642z"/><path d="M234.042 224.558a1.57 1.57 0 0 0-1.577-1.559c-.87 0-1.577.7-1.577 1.559 0 .86.707 1.56 1.577 1.56.869 0 1.577-.7 1.577-1.56zm-2.275 0a.69.69 0 0 1 .698-.68.69.69 0 0 1 .698.68.69.69 0 0 1-.698.681.69.69 0 0 1-.698-.681zM224.786 222.719a1.852 1.852 0 0 0-1.861 1.839c0 1.015.835 1.84 1.861 1.84a1.853 1.853 0 0 0 1.862-1.84c0-1.014-.835-1.839-1.862-1.839zm0 2.8a.973.973 0 0 1-.982-.961c0-.529.441-.96.982-.96.542 0 .983.431.983.96 0 .53-.441.961-.983.961z"/></g><path d="M416.983 30.193a.44.44 0 0 0-.544-.301l-3.133.902a1.583 1.583 0 0 0-1.136 1.516v5.528h-2v-2.404c0-.671-.302-1.286-.819-1.691v-3.144a.724.724 0 0 0-.722-.724h-1.185a.724.724 0 0 0-.722.724v3.144a2.135 2.135 0 0 0-.818 1.691v2.404h-4.641a.44.44 0 0 0 0 .879h11.528v1.396h-15.605v-1.396h2.411a.44.44 0 1 0 0-.879h-1.79V32.31c0-.7-.467-1.323-1.137-1.516l-3.132-.902a.44.44 0 0 0-.243.845l3.132.902a.7.7 0 0 1 .501.671v5.536a.723.723 0 0 0-.621.716v1.706c0 .365.271.667.621.716v9.944a.723.723 0 0 0-.621.716v1.706c0 .365.271.667.621.716v.99a2.43 2.43 0 0 0-1.976 2.389c0 1.34 1.084 2.43 2.416 2.43a2.426 2.426 0 0 0 2.415-2.43 2.43 2.43 0 0 0-1.976-2.389v-.982h14.363v.982a2.43 2.43 0 0 0-1.976 2.389c0 1.34 1.083 2.43 2.415 2.43a2.425 2.425 0 0 0 2.415-2.43 2.43 2.43 0 0 0-1.976-2.389v-.99a.723.723 0 0 0 .621-.716v-1.706a.723.723 0 0 0-.621-.716v-9.944a.723.723 0 0 0 .621-.716v-1.706a.723.723 0 0 0-.621-.716V32.31a.7.7 0 0 1 .501-.671l3.133-.902a.44.44 0 0 0 .301-.544zm-7.692 7.645h-2.508v-2.404c0-.448.227-.854.607-1.086a.44.44 0 0 0 .211-.376v-3.218h.871v3.219c0 .153.08.295.211.375.38.232.608.638.608 1.086v2.404zm-11.484 19.778v-1.657a1.551 1.551 0 0 1 1.097 1.486c0 .855-.689 1.551-1.536 1.551a1.546 1.546 0 0 1-1.537-1.551c0-.701.464-1.295 1.097-1.486v1.657a.44.44 0 0 0 .879 0zm-.621-4.421v-1.396h11.994a.44.44 0 0 0 0-.879h-2.409a4.425 4.425 0 0 0 1.14-2.973v-.285a.723.723 0 0 0-.584-.71 2.297 2.297 0 0 0-2.267-2.599c-.592 0-1.133.228-1.54.601a2.29 2.29 0 0 0-1.539-.601 2.297 2.297 0 0 0-2.268 2.599.723.723 0 0 0-.583.71v.285a4.41 4.41 0 0 0 1.139 2.973h-2.462v-9.928h14.362v9.928h-1.324a.439.439 0 1 0 0 .879h1.945v1.396h-15.604zm5.605-6.257h-2.189a1.417 1.417 0 0 1 1.379-1.706c.389 0 .749.157 1.014.435a2.296 2.296 0 0 0-.204 1.271zm3.956.879l.015.001.011-.001h.26v.13a3.543 3.543 0 0 1-1.601 2.973h-3.82a3.532 3.532 0 0 1-1.603-2.973v-.13h6.738zm-3.095-1.163c0-.784.632-1.422 1.408-1.422a1.416 1.416 0 0 1 1.38 1.706h-2.759a1.418 1.418 0 0 1-.029-.284zm10.493 10.791c0 .855-.689 1.551-1.536 1.551a1.545 1.545 0 0 1-1.536-1.551c0-.701.463-1.295 1.097-1.486v1.657a.439.439 0 1 0 .878 0v-1.657a1.551 1.551 0 0 1 1.097 1.486z" fill="#0069FF"/><g fill="#0069FF"><path d="M132.357 313.036a15.15 15.15 0 0 0 0-5.857.44.44 0 0 0-.863.17 14.27 14.27 0 0 1 0 5.518.44.44 0 0 0 .863.169z"/><path d="M142.157 312.512h-.676v-10.935c0-.538-.267-1.034-.714-1.326a1.534 1.534 0 0 0-1.459-.121l-.27.119a11.118 11.118 0 0 1-8.93 0l-.27-.119a1.536 1.536 0 0 0-1.46.121 1.579 1.579 0 0 0-.713 1.326v10.936h-.676c-1.472-.001-2.67 1.217-2.67 2.714v4.55c0 1.497 1.198 2.715 2.67 2.715h.118v1.551c0 .339.233.623.545.702l-.96 4.375a.721.721 0 0 0 .701.88h1.689c.299 0 .57-.19.674-.473l1.741-4.76h6.152l1.741 4.76a.722.722 0 0 0 .674.473h1.689a.725.725 0 0 0 .701-.88l-.96-4.375a.725.725 0 0 0 .545-.702v-1.551h.118c1.472 0 2.67-1.218 2.67-2.715v-4.55c0-1.497-1.198-2.715-2.67-2.715zm-13.189 16.609h-1.377l.956-4.354h2.014l-1.593 4.354zm2.222-5.233H127.986v-1.396h13.174v1.396H131.19zm10.365 5.233h-1.377l-1.593-4.354h2.014l.956 4.354zm2.393-9.344c0 1.013-.804 1.836-1.791 1.836h-15.168c-.988 0-1.791-.823-1.791-1.836v-4.55c0-1.012.803-1.836 1.791-1.836h.676v4.111c0 .87.697 1.577 1.555 1.577h1.659a.439.439 0 1 0 0-.879h-1.659a.688.688 0 0 1-.676-.698v-15.925c0-.244.115-.459.315-.59a.648.648 0 0 1 .625-.052l.27.119a12 12 0 0 0 9.638 0l.27-.119a.648.648 0 0 1 .625.052c.2.131.315.346.315.59v15.925a.688.688 0 0 1-.676.698h-7.361a.44.44 0 0 0 0 .879h7.361c.858 0 1.555-.707 1.555-1.577v-4.111h.676c.987 0 1.791.824 1.791 1.836v4.55z"/><path d="M134.573 315.098a.44.44 0 0 0 .439-.44v-9.1a.44.44 0 1 0-.879 0v9.1c0 .243.197.44.44.44zM137.22 313.392a.44.44 0 0 0 .432-.525 14.27 14.27 0 0 1 0-5.518.44.44 0 0 0-.863-.169 15.15 15.15 0 0 0 0 5.857.441.441 0 0 0 .431.355z"/></g><path d="M60.59 318.925c0-.523-.312-.973-.758-1.177v-2.52a.72.72 0 0 0-.201-.499l.377-1.583a1.888 1.888 0 0 0-.358-1.617 1.888 1.888 0 0 0-1.49-.722 1.89 1.89 0 0 0-1.491.722 1.888 1.888 0 0 0-.357 1.617l.377 1.583a.72.72 0 0 0-.201.499v2.52a1.294 1.294 0 0 0 .532 2.469 5.285 5.285 0 0 1-4.491 2.534H47.14a1.633 1.633 0 0 0-1.111-1.077v-.949a1.632 1.632 0 0 0 1.051-.918h2.136c.615 0 1.204-.162 1.72-.465a1.505 1.505 0 0 0 2.659.661c.286-.363.389-.829.282-1.28l-.457-1.919h.133a1.293 1.293 0 0 0 .439-2.508v-2.197a.716.716 0 0 0-.185-.481l.347-1.454a1.78 1.78 0 0 0-.336-1.522 1.777 1.777 0 0 0-1.403-.679c-.55 0-1.061.247-1.402.679a1.776 1.776 0 0 0-.336 1.522l.346 1.454a.716.716 0 0 0-.185.481v2.197a1.294 1.294 0 0 0 .44 2.508h.132l-.311 1.307a.447.447 0 0 0-.081.064c-.48.486-1.12.753-1.802.753h-2.019a1.609 1.609 0 0 0-.182-.545 1.797 1.797 0 0 0 .365-1.355 1.424 1.424 0 0 0 .174-2.608 1.973 1.973 0 0 0-.024-.816l-.704-2.959a1.267 1.267 0 0 0-.797-.898v-4.948a1.626 1.626 0 0 0 1.18-1.693 2.435 2.435 0 0 0 1.949-2.382.725.725 0 0 0-.724-.724h-2.655a.44.44 0 0 0 0 .879h2.492a1.554 1.554 0 0 1-1.544 1.396h-.074a.438.438 0 0 0-.395.633.746.746 0 1 1-1.337 0 .44.44 0 0 0-.394-.633h-.075a1.553 1.553 0 0 1-1.543-1.396h1.221a.44.44 0 0 0 0-.879h-1.384a.725.725 0 0 0-.724.724c0 1.175.838 2.158 1.948 2.382a1.626 1.626 0 0 0 1.18 1.693v4.948c-.39.144-.695.473-.796.898l-.206.867a.438.438 0 0 0 .325.529.441.441 0 0 0 .53-.326l.206-.866a.39.39 0 0 1 .761 0l.705 2.959c.058.243.034.492-.069.718a.438.438 0 0 0 .354.619.546.546 0 0 1-.058 1.087h-.086a.438.438 0 0 0-.394.633.925.925 0 0 1-.036.882 1.614 1.614 0 0 0-1.593 0 .919.919 0 0 1-.035-.882.438.438 0 0 0-.395-.633h-.086a.546.546 0 0 1-.058-1.087.44.44 0 0 0 .354-.619 1.102 1.102 0 0 1-.069-.718l.133-.56a.438.438 0 0 0-.325-.529.441.441 0 0 0-.53.326l-.133.559a1.99 1.99 0 0 0-.024.816 1.424 1.424 0 0 0 .174 2.608 1.822 1.822 0 0 0 .365 1.355c-.091.166-.154.35-.182.545h-2.018c-.72 0-1.408-.308-1.888-.844l-.002-.002-.304-1.277h.132a1.294 1.294 0 0 0 .44-2.509v-2.197a.723.723 0 0 0-.185-.481l.346-1.454a1.776 1.776 0 0 0-.336-1.522 1.778 1.778 0 0 0-1.402-.679c-.551 0-1.062.248-1.403.679a1.78 1.78 0 0 0-.336 1.522l.346 1.454a.722.722 0 0 0-.184.481v2.197a1.296 1.296 0 0 0-.854 1.216c0 .713.58 1.293 1.293 1.293h.132l-.456 1.919a1.49 1.49 0 0 0 .282 1.279c.287.363.717.572 1.18.572a1.509 1.509 0 0 0 1.479-1.234 3.41 3.41 0 0 0 1.72.466H44.1a1.63 1.63 0 0 0 1.05.918v.949a1.632 1.632 0 0 0-1.11 1.077h-5.389a5.234 5.234 0 0 1-4.492-2.534 1.293 1.293 0 0 0 .533-2.469v-2.52a.72.72 0 0 0-.201-.499l.377-1.583a1.891 1.891 0 0 0-.357-1.617 1.89 1.89 0 0 0-1.491-.722 1.89 1.89 0 0 0-1.491.722 1.891 1.891 0 0 0-.357 1.617l.377 1.583a.72.72 0 0 0-.201.498v2.521a1.294 1.294 0 0 0 .534 2.469h.133l-.457 1.919c-.107.45-.004.917.283 1.28.286.363.716.571 1.179.571.463 0 .893-.208 1.179-.571.287-.363.39-.83.283-1.28l-.043-.181a6.113 6.113 0 0 0 4.212 1.675h3.371v.414c0 1.517.952 2.815 2.29 3.33a1.616 1.616 0 0 0-.347 1.002c0 .895.729 1.624 1.625 1.624.895 0 1.624-.729 1.624-1.624 0-.378-.13-.726-.347-1.002a3.574 3.574 0 0 0 2.291-3.331v-.413h3.371a6.106 6.106 0 0 0 4.213-1.679l-.044.185c-.108.45-.005.917.282 1.28s.717.571 1.18.571c.462 0 .892-.208 1.179-.571.287-.363.39-.83.283-1.28l-.457-1.919h.132c.713 0 1.293-.58 1.293-1.292zm-7.685.533a.621.621 0 0 1-.98 0 .621.621 0 0 1-.117-.531l.482-2.024a.127.127 0 0 1 .125-.098c.06 0 .111.04.125.098l.482 2.024a.618.618 0 0 1-.117.531zm-1.203-10.271a.905.905 0 0 1 .713-.345.905.905 0 0 1 .884 1.118l-.337 1.415h-1.094l-.337-1.415a.906.906 0 0 1 .171-.773zm1.411 3.067v1.965h-1.396v-1.965h1.396zm-1.835 3.672a.414.414 0 0 1 0-.828h2.275a.414.414 0 0 1 0 .828h-2.275zm-13.226-6.739a.904.904 0 0 1 .713-.345c.279 0 .539.126.712.345a.9.9 0 0 1 .171.773l-.337 1.415h-1.093l-.337-1.415a.9.9 0 0 1 .171-.773zm1.411 3.067v1.965h-1.396v-1.965h1.396zm-1.836 3.672a.415.415 0 0 1 0-.828h2.275a.415.415 0 0 1 0 .828h-2.275zm1.627 3.532a.62.62 0 0 1-.979 0 .618.618 0 0 1-.117-.531l.481-2.024a.129.129 0 0 1 .126-.098c.06 0 .111.04.125.098l.482 2.024a.621.621 0 0 1-.118.531zm-7.035-7.384c.195-.247.487-.388.801-.388.314 0 .606.141.801.388.195.246.265.563.192.869l-.372 1.561h-1.242l-.372-1.561a1.013 1.013 0 0 1 .192-.869zm1.594 3.309v2.249h-1.586v-2.249h1.586zm-.303 7.488a.62.62 0 0 1-.49.237.62.62 0 0 1-.607-.768l.482-2.024a.128.128 0 0 1 .25 0l.482 2.024a.618.618 0 0 1-.117.531zm-1.628-3.533a.413.413 0 0 1 0-.827h2.276a.413.413 0 0 1 0 .827h-2.276zm12.962-.176a.747.747 0 0 1 1.491 0 .746.746 0 0 1-1.491 0zm.746 3.33a.746.746 0 0 1 0 1.491.746.746 0 0 1 0-1.491zm0 6.629a.746.746 0 0 1 0-1.491.746.746 0 0 1 0 1.491zm0-2.389a2.692 2.692 0 0 1-2.689-2.689v-.413h1.113a1.625 1.625 0 0 0 3.152 0h1.113v.413a2.692 2.692 0 0 1-2.689 2.689zm11.769-14.658c.195-.247.486-.388.801-.388a1.02 1.02 0 0 1 .993 1.257l-.372 1.561h-1.243l-.371-1.561a1.013 1.013 0 0 1 .192-.869zm1.594 3.309v2.249h-1.586v-2.249h1.586zm-.304 7.488a.618.618 0 0 1-.489.237.62.62 0 0 1-.607-.768l.481-2.024a.13.13 0 0 1 .126-.099c.06 0 .111.041.125.099l.482 2.024a.622.622 0 0 1-.118.531zm-1.627-3.533a.414.414 0 1 1 0-.827h2.275a.414.414 0 0 1 0 .827h-2.275z" fill="#0069FF"/><g fill="#0069FF"><path d="M137.189 37.618a.44.44 0 0 0 0-.879h-5.232a.44.44 0 1 0 0 .879h5.232zM137.189 42.398h-5.232a.44.44 0 0 0 0 .879h5.232a.44.44 0 1 0 0-.879zM137.189 48.058h-5.233a.44.44 0 0 0 0 .879h5.233a.44.44 0 0 0 0-.879z"/><path d="M122.287 52.219h24.571a.44.44 0 0 0 .44-.439V34.688a.44.44 0 0 0-.44-.439h-18.295a.44.44 0 1 0 0 .878h17.856v4.819h-23.692v-4.819h4.13a.439.439 0 1 0 0-.878h-4.57a.439.439 0 0 0-.439.439V51.78c0 .243.197.439.439.439zm.44-11.394h23.692v4.818h-23.692v-4.818zm0 5.697h23.692v4.819h-23.692v-4.819z"/><path d="M148.849 31.985h-28.552a.724.724 0 0 0-.724.722v21.054c0 .398.325.722.724.722h.556v2.56c0 .399.324.723.724.723h2.843a.724.724 0 0 0 .724-.723v-.522h18.858v.522c0 .399.324.723.723.723h2.844a.724.724 0 0 0 .724-.723v-2.56h.556a.724.724 0 0 0 .724-.722V32.707a.724.724 0 0 0-.724-.722zm-.155 21.619h-7.03a.44.44 0 0 0 0 .879h5.75v2.404h-2.534v-.806a.438.438 0 0 0-.439-.439h-19.736a.44.44 0 0 0-.44.439v.806h-2.533v-2.404h18.112a.439.439 0 1 0 0-.879h-19.392v-20.74h28.242v20.74z"/></g><g fill="#0069FF"><path d="M42.895 35.123l-.258-.258.258-.259a.44.44 0 1 0-.623-.62l-.256.257-.256-.257a.438.438 0 1 0-.622.62l.257.259-.257.258a.44.44 0 1 0 .622.621l.256-.257.256.257a.44.44 0 0 0 .623-.621zM41.139 41.432a.435.435 0 0 0 .621 0l.256-.257.256.257a.44.44 0 0 0 .623-.621l-.258-.258.258-.259a.44.44 0 1 0-.623-.621l-.256.257-.256-.257a.44.44 0 0 0-.622.621l.257.259-.257.258a.438.438 0 0 0 .001.621zM50.042 35.123l-.258-.258.258-.259a.44.44 0 1 0-.623-.62l-.256.257-.256-.257a.438.438 0 1 0-.622.62l.258.259-.258.258a.44.44 0 0 0 .622.621l.256-.257.256.257a.44.44 0 0 0 .623-.621zM48.286 41.432a.437.437 0 0 0 .621 0l.256-.257.256.257a.44.44 0 0 0 .623-.621l-.258-.258.258-.259a.44.44 0 1 0-.623-.621l-.256.257-.256-.257a.44.44 0 0 0-.622.621l.258.259-.258.258a.44.44 0 0 0 .001.621z"/><path d="M56.367 41.819c-.528 0-1.04.141-1.489.399V36.04a.44.44 0 0 0-.879 0v9.192H42.158a.439.439 0 1 0 0 .879h11.997c.026 0 .051.002.075.004a.429.429 0 0 0 .198.052.699.699 0 0 1 .422.642v2.275a.697.697 0 0 1-.695.698h-17.13a.698.698 0 0 1-.696-.698v-2.275c0-.385.312-.698.696-.698h2.892a.44.44 0 0 0 0-.879H37.18V32.59c0-1.012.821-1.836 1.83-1.836h13.16c1.009 0 1.829.824 1.829 1.836v1.535a.44.44 0 0 0 .879 0V32.59a2.715 2.715 0 0 0-2.708-2.715H39.01a2.715 2.715 0 0 0-2.709 2.715v9.628a2.988 2.988 0 0 0-1.489-.399 3 3 0 0 0-2.481 4.675v4.865c0 1.347.984 2.467 2.269 2.678v2.441a1.58 1.58 0 0 0 1.191 1.53v1.143c0 .399.324.724.723.724h2.836a.724.724 0 0 0 .723-.724v-1.096h11.033v1.096c0 .399.325.724.723.724h2.837a.725.725 0 0 0 .723-.724v-1.143a1.58 1.58 0 0 0 1.191-1.53v-2.441a2.716 2.716 0 0 0 2.269-2.678v-4.865a3 3 0 0 0-2.482-4.675zM39.194 58.996H36.67v-.941h2.524v.941zm15.316 0h-2.525v-.941h2.525v.941zm1.191-2.518a.697.697 0 0 1-.695.698H36.174a.697.697 0 0 1-.695-.698v-2.404h20.222v2.404zm2.357-10.387a.438.438 0 0 0-.088.263v5.005a1.835 1.835 0 0 1-1.83 1.836H35.039a1.835 1.835 0 0 1-1.829-1.836v-5.005a.438.438 0 0 0-.088-.263 2.119 2.119 0 0 1 1.69-3.393c.559 0 1.095.224 1.489.617v2.094c-.505.263-.85.792-.85 1.4v2.275c0 .87.706 1.577 1.574 1.577h17.13c.868 0 1.574-.707 1.574-1.577v-2.275a1.58 1.58 0 0 0-.851-1.4v-2.094c.395-.393.93-.617 1.489-.617 1.165 0 2.113.951 2.113 2.12 0 .463-.146.903-.422 1.273z"/></g><g fill="#0069FF"><path d="M48.735 124.193a.439.439 0 0 0-.439-.439h-6.592a.439.439 0 1 0 0 .879h6.592a.44.44 0 0 0 .439-.44z"/><path d="M51.372 125.801h-.11v-4.224c0-.87-.69-1.577-1.538-1.577h-9.448c-.848 0-1.538.707-1.538 1.577v4.224h-.11c-.848 0-1.538.708-1.538 1.577v1.024c0 .87.69 1.577 1.538 1.577h.659v1.552c0 .399.32.723.714.723h.934v.431l-1.96 1.015a.44.44 0 1 0 .404.78l2.198-1.137a.441.441 0 0 0 .237-.391v-.698h1.648v6.515h-1.703c-.727 0-1.318.606-1.318 1.35 0 .744.591 1.349 1.318 1.349h1.703v5.833h-1.703c-1.06 0-1.923.886-1.923 1.975a.72.72 0 0 0 .715.724h5.204a.44.44 0 1 0 0-.879h-5.029c.072-.531.508-.941 1.033-.941h6.482c.525 0 .961.41 1.033.941h-1.816a.44.44 0 0 0 0 .879h1.992a.72.72 0 0 0 .714-.724c0-1.089-.863-1.975-1.923-1.975h-1.703v-5.833h1.703c.727 0 1.318-.605 1.318-1.349s-.591-1.35-1.318-1.35h-1.703v-6.515h3.461a.72.72 0 0 0 .714-.724v-1.551h.659c.848 0 1.538-.707 1.538-1.577v-1.024c0-.869-.69-1.577-1.538-1.577zm-7.91 14.789h-1.703c-.242 0-.439-.212-.439-.471 0-.26.197-.471.439-.471h1.703v.942zm2.197 6.711h-1.318v-5.833h1.318v5.833zm0-6.711h-1.318v-8.336h1.318v8.336zm2.582-.942c.242 0 .439.211.439.471 0 .259-.197.47-.439.47h-1.703v-.941h1.703zm1.593-8.273h-9.668v-1.396h9.668v1.396zm2.197-2.973c0 .385-.296.698-.659.698H38.628c-.364 0-.659-.313-.659-.698v-1.024c0-.384.295-.698.659-.698h2.801a.44.44 0 1 0 0-.879h-1.812v-4.224c0-.385.295-.698.659-.698h9.448c.364 0 .659.313.659.698v4.224h-7.278a.44.44 0 0 0 0 .879h8.267c.363 0 .659.314.659.698v1.024z"/><path d="M41.704 122.926h6.592a.44.44 0 1 0 0-.879h-6.592a.44.44 0 0 0 0 .879z"/></g><path d="M55.309 220.862l-5.368-1.769a41.659 41.659 0 0 0-6.274-1.54.44.44 0 0 0-.143.867c2.079.342 4.145.849 6.142 1.507l5.368 1.769c2.445.806 4.087 3.038 4.087 5.555 0 3.151-2.563 5.729-5.763 5.857.865-.632 1.409-1.547 1.409-2.563a.44.44 0 1 0-.879 0c0 1.416-1.509 2.568-3.364 2.568H48.64c-7.801 0-14.148-3.809-14.148-8.491a.44.44 0 1 0-.879 0c0 2.546 1.591 4.923 4.48 6.691 1.229.752 2.632 1.357 4.153 1.8h-5.355c-3.315 0-6.012-2.63-6.012-5.862v-3.509c0-2.634 1.789-4.867 4.245-5.605.098 1.93 2.203 3.697 5.952 4.989 3.695 1.274 8.603 1.976 13.821 1.976a.44.44 0 0 0 0-.879c-5.123 0-9.929-.684-13.535-1.928-3.409-1.175-5.364-2.742-5.364-4.3a.436.436 0 0 0-.003-.051c.292-.043.591-.065.896-.065 1.653 0 3.322.102 4.962.302a.438.438 0 1 0 .107-.872 41.902 41.902 0 0 0-5.069-.309c-3.8 0-6.891 3.024-6.891 6.742v3.509c0 3.717 3.091 6.741 6.891 6.741h16.218c3.8 0 6.891-3.024 6.891-6.741 0-2.897-1.885-5.465-4.691-6.389zM328.423 39.402h-13.046c.187-.316.29-.68.29-1.062 0-1.162-.963-2.107-2.146-2.107h-6.825c-1.183 0-2.146.945-2.146 2.107 0 .379.105.744.293 1.062h-3.266c-.87 0-1.577.696-1.577 1.552v1.001c0 .705.481 1.302 1.138 1.489V52.8c0 .396.324.718.723.718h1.707a.722.722 0 0 0 .724-.718v-4.009h21.417V52.8c0 .396.324.718.723.718h1.707a.722.722 0 0 0 .724-.718v-9.356A1.557 1.557 0 0 0 330 41.955v-1.001c0-.856-.707-1.552-1.577-1.552zm-2.715 8.51h-21.416v-2.181h21.416v2.181zm3.413-5.957a.686.686 0 0 1-.698.672h-4.664a.44.44 0 0 0 0 .879h4.225v9.133h-1.397v-7.348a.439.439 0 0 0-.439-.439h-22.296a.439.439 0 0 0-.439.439v7.348h-1.397v-9.133h20.075a.44.44 0 0 0 0-.879h-20.514a.686.686 0 0 1-.698-.672v-1.001c0-.371.313-.673.698-.673h6.219a.44.44 0 0 0 0-.879h-1.739a1.228 1.228 0 0 1-.628-1.062c0-.677.568-1.229 1.267-1.229h6.825c.699 0 1.267.552 1.267 1.229 0 .43-.225.821-.602 1.047l-.023.015h-4.585a.44.44 0 1 0 0 .879h18.845c.385 0 .698.302.698.673v1.001z" fill="#0069FF"/><g fill="#0069FF"><path d="M507.977 329.121h-2.731v-.941h1.273c.357 0 .647-.316.647-.705v-8.395c.356-.001.645-.325.645-.724v-1.706c0-.4-.29-.724-.646-.724h-.589v-3.886c.419-.273.702-.781.702-1.363 0-.581-.283-1.089-.702-1.363v-1.824c.419-.273.702-.782.702-1.363s-.283-1.089-.702-1.363v-1.61h.589c.356 0 .646-.325.646-.724v-1.706c0-.399-.29-.724-.646-.724h-16.81c-.356 0-.646.325-.646.724v1.706c0 .399.29.724.646.724h.588v1.61c-.419.274-.701.782-.701 1.363s.282 1.09.701 1.363v1.824c-.419.274-.701.782-.701 1.363s.282 1.09.701 1.363v3.886h-.588c-.356 0-.646.324-.646.723v1.707c0 .398.289.723.645.724v8.394c0 .389.29.706.646.706h1.273v.941h-4.522v-.941h.108c.361 0 .654-.329.654-.733v-21.596c0-.404-.293-.732-.654-.732h-5.063c-.36 0-.654.328-.654.732v21.596c0 .404.294.733.654.733h.108v.941h-.928c-.217 0-.392.197-.392.44 0 .242.175.439.392.439h18.18c.217 0 .393-.197.393-.439 0-.243-.176-.44-.393-.44h-7.098v-.941h11.404v.941h-2.714c-.217 0-.393.197-.393.44 0 .242.176.439.393.439h6.229c.217 0 .392-.197.392-.439 0-.243-.175-.44-.392-.44zm-21.01 0h-3.278v-.941h3.278v.941zm.761-1.82h-4.801v-8.79h4.801v8.79zm0-9.669h-4.801v-2.534h4.801v2.534zm0-3.413h-4.801v-8.221h4.801v8.221zm18.653 8.091h-15.242v-3.23h15.242v3.23zm-15.887-20.035v-1.396h16.532v1.396h-9.324c-.217 0-.392.197-.392.44 0 .242.175.439.392.439h1.101l-1.869 2.094a.475.475 0 0 0 0 .621.37.37 0 0 0 .277.129.37.37 0 0 0 .277-.129l2.425-2.715h2.343v1.251l-2.783 3.118a.475.475 0 0 0 0 .621.37.37 0 0 0 .277.129.371.371 0 0 0 .278-.129l2.228-2.496v6.865h-3.637v-2.12c0-.228.166-.414.369-.414.204 0 .37.186.37.414v.284c0 .243.176.44.392.44.217 0 .393-.197.393-.44v-.284c0-.713-.518-1.293-1.155-1.293-.636 0-1.154.58-1.154 1.293v2.12h-2.571v-1.654l2.933-3.284a.477.477 0 0 0 0-.621.363.363 0 0 0-.555 0l-2.377 2.662v-6.462h.982c.217 0 .393-.197.393-.439 0-.243-.176-.44-.393-.44h-5.752zm13.452 10.238h-.905v-9.359h2.751v1.399c-.741.045-1.33.734-1.33 1.574 0 .841.589 1.529 1.33 1.575v1.401c-.741.045-1.33.734-1.33 1.574 0 .841.589 1.529 1.33 1.575v3.674h-2.295c.67-.655 1.095-1.617 1.095-2.689 0-.399-.29-.724-.646-.724zm1.3-1.836c0-.385.28-.698.624-.698.343 0 .623.313.623.698 0 .385-.28.698-.623.698-.344 0-.624-.313-.624-.698zm.624-3.852c-.344 0-.624-.313-.624-.698 0-.385.28-.698.624-.698.343 0 .623.313.623.698 0 .385-.28.698-.623.698zm-11.46 9.101h-2.682v-3.674c.741-.046 1.33-.734 1.33-1.575 0-.84-.589-1.529-1.33-1.574v-1.401c.741-.046 1.33-.735 1.33-1.575s-.589-1.529-1.33-1.574v-1.399h2.751v9.359h-.518c-.356 0-.646.325-.646.724 0 1.072.425 2.034 1.095 2.689zm-2.76-5.947c.344 0 .624.313.624.698 0 .385-.28.698-.624.698-.343 0-.623-.313-.623-.698 0-.385.28-.698.623-.698zm-.623-3.852c0-.385.28-.698.623-.698.344 0 .624.313.624.698 0 .385-.28.698-.624.698-.343 0-.623-.313-.623-.698zm-.533 12.074v-1.396h8.19c.216 0 .392-.197.392-.44s-.176-.439-.392-.439H496.5c-1.277 0-2.325-1.123-2.397-2.534h9.7c-.072 1.411-1.119 2.534-2.396 2.534h-1.2c-.216 0-.392.196-.392.439s.176.44.392.44h6.819v1.396h-16.532zm.645 9.1v-4.112h15.242v4.112h-15.242z"/><path d="M486.547 322.492c.216 0 .392-.196.392-.439v-1.707c0-.242-.176-.439-.392-.439-.217 0-.393.197-.393.439v1.707c0 .243.176.439.393.439zM500.537 324.457h-3.554c-.217 0-.393.197-.393.44 0 .242.176.439.393.439h3.554c.217 0 .393-.197.393-.439 0-.243-.176-.44-.393-.44zM496.983 320.786h3.554c.217 0 .393-.197.393-.44 0-.242-.176-.439-.393-.439h-3.554c-.217 0-.393.197-.393.439 0 .243.176.44.393.44zM486.547 311.117c.216 0 .392-.197.392-.44v-1.706c0-.243-.176-.439-.392-.439-.217 0-.393.196-.393.439v1.706c0 .243.176.44.393.44zM484.515 316.805h1.524c.216 0 .392-.197.392-.44s-.176-.439-.392-.439h-1.524c-.216 0-.392.196-.392.439s.176.44.392.44z"/></g><g fill="#0069FF"><path d="M307.037 135.387c-.242 0-.439.221-.439.492v1.885c0 .272.197.492.439.492.243 0 .44-.22.44-.492v-1.885c0-.271-.197-.492-.44-.492zM319.99 137.764v-1.885c0-.271-.197-.492-.44-.492s-.439.221-.439.492v1.885c0 .272.196.492.439.492s.44-.22.44-.492zM307.322 128.834h2.843c.243 0 .44-.22.44-.492s-.197-.492-.44-.492h-2.843c-.243 0-.44.22-.44.492s.197.492.44.492zM310.45 135.387c-.243 0-.44.221-.44.492v1.885c0 .272.197.492.44.492.242 0 .439-.22.439-.492v-1.885c0-.271-.197-.492-.439-.492zM322.963 138.256c.242 0 .439-.22.439-.492v-1.885c0-.271-.197-.492-.439-.492-.243 0-.44.221-.44.492v1.885c0 .272.197.492.44.492z"/><path d="M329.276 123.516h-28.552c-.399 0-.724.361-.724.806v1.884c0 .445.325.807.724.807h1.551v14.109c-.325.08-.569.402-.569.787v1.885c0 .385.244.707.569.787v1.097c0 .445.325.806.724.806h2.844c.399 0 .724-.361.724-.806V144.6h16.866v1.078c0 .445.325.806.724.806h2.844c.399 0 .724-.361.724-.806v-1.097c.325-.079.569-.402.569-.787v-1.885c0-.385-.244-.707-.569-.787v-14.109h1.551c.399 0 .724-.362.724-.807v-1.884c0-.445-.325-.806-.724-.806zM305.688 145.5h-2.534v-.9h2.534v.9zm21.158 0h-2.534v-.9h2.534v.9zm.569-1.884h-24.83v-1.529h15.486c.243 0 .44-.22.44-.492s-.197-.492-.44-.492h-2.632v-8.437h5.378v8.437h-1.039c-.243 0-.44.22-.44.492s.197.492.44.492h7.637v1.529zm-24.261-2.513v-8.437h5.15v8.437h-5.15zm6.029 0v-8.437h5.377v8.437h-5.377zm6.256-9.422v-4.658-.01h11.407v4.668h-11.407zm11.407.985v8.437h-5.15v-8.437h5.15zm2.275-6.638h-22.994c-.243 0-.439.221-.439.492 0 .272.196.493.439.493h8.434l-.001.01v4.658h-11.406v-4.668h1.267c.243 0 .439-.221.439-.493 0-.271-.196-.492-.439-.492h-3.542V124.5h28.242v1.528z"/><path d="M322.678 127.85h-2.844c-.242 0-.439.22-.439.492s.197.492.439.492h2.844c.243 0 .44-.22.44-.492s-.197-.492-.44-.492z"/></g><path d="M508.423 131.984h-2.958c-.242 0-.439.22-.439.492s.197.493.439.493h2.958c.385 0 .698.337.698.752v1.12c0 .415-.313.753-.698.753h-20.589a.965.965 0 0 0-.098-.003.673.673 0 0 1-.543-.222l-6.113-6.689a.775.775 0 0 1-.201-.528c0-.199.071-.386.201-.528l.724-.792c.274-.3.72-.3.994 0l4.709 5.152h-.242c-.243 0-.44.22-.44.492s.197.492.44.492h.868v1.362c0 .272.197.493.44.493s.439-.221.439-.493v-1.362h14.69c.243 0 .44-.22.44-.492s-.197-.492-.44-.492h-14.938l-5.352-5.856a1.478 1.478 0 0 0-2.222 0l-.724.792a1.812 1.812 0 0 0-.466 1.232c0 .466.165.904.466 1.233l2.697 2.951-1.164 2.759h-.138c-.399 0-.723.36-.723.803V142.868c0 .443.324.804.723.804h1.707c.399 0 .724-.361.724-.804v-3.677h1.845c.242 0 .439-.22.439-.492s-.197-.492-.439-.492h-4.121v-2.128h4.569a1.5 1.5 0 0 0 1.176.496.873.873 0 0 0 .073.003h20.589l.016-.001v1.63h-20.606c-.242 0-.439.22-.439.492s.197.492.439.492h5.59v3.678c0 .443.325.803.724.803h1.706c.399 0 .724-.361.724-.803v-3.678h9.586v3.678c0 .443.325.803.724.803h1.707c.399 0 .724-.361.724-.803V136.27c.411-.313.682-.837.682-1.429v-1.12c0-.958-.707-1.737-1.577-1.737zm-25.01 7.207v3.496h-1.397v-3.496h1.397zm-.442-4.096l.857-2.032 1.857 2.032h-2.714zm12.727 7.592h-1.396v-3.496h1.396v3.496zm12.74 0h-1.396v-3.496h1.396v3.496z" fill="#0069FF"/><g fill="#0069FF"><path d="M418.866 312.922h-2.663v-2.291c0-.433-.315-.786-.704-.786h-1.659c-.389 0-.704.353-.704.786v2.291h-4.622v-1.06c0-.434-.316-.786-.704-.786h-1.288v-1.812h4.607c.388 0 .704-.353.704-.786v-7.692c0-.433-.316-.786-.704-.786h-8.114c-.236 0-.427.214-.427.479 0 .264.191.478.427.478h7.963v5.504h-11.98v-5.504h2.422c.236 0 .428-.214.428-.478 0-.265-.192-.479-.428-.479h-2.572c-.389 0-.704.353-.704.786v7.692c0 .433.315.786.704.786h4.606v1.812h-1.287c-.388 0-.704.352-.704.786v1.06h-4.622v-2.291c0-.433-.316-.786-.704-.786h-1.66c-.388 0-.704.353-.704.786v2.291h-2.662c-.393 0-.712.357-.712.797v1.823c0 .44.319.798.712.798h.947V329.214c0 .433.316.786.704.786h1.66c.388 0 .704-.353.704-.786v-9.182h19.725v9.182c0 .433.316.786.704.786h1.659c.389 0 .704-.353.704-.786V316.34h.948c.392 0 .712-.358.712-.798v-1.823c0-.44-.32-.797-.712-.797zm-4.875-2.12h1.358v2.119h-1.358v-2.119zm-14.993-2.495v-.889h11.98v.889h-11.98zm6.669.957v1.812h-1.358v-1.812h1.358zm1.992 2.769v.888h-5.341v-.888h5.341zm-13.031-1.231h1.358v2.119h-1.358v-2.119zm-.357 18.241h-1.358v-9.011h1.358v9.011zm3.319-12.703v2.735h-4.677v-2.735h4.677zm13.941 2.735h-13.086v-2.735h13.086v2.735zm5.532 9.968h-1.357v-9.011h1.357v9.011zm0-10.085v.117h-4.677v-2.735h4.677v2.618zm1.66-3.575h-27.469v-1.504h27.469v1.504z"/><path d="M403.882 318.186h2.213c.236 0 .427-.214.427-.479 0-.264-.191-.478-.427-.478h-2.213c-.236 0-.428.214-.428.478 0 .265.192.479.428.479z"/></g><g fill="#0069FF"><path d="M327.747 302.73h-2.503v-2.006c0-.399-.29-.724-.646-.724h-5.281c-.357 0-.647.325-.647.724v2.006h-16.417c-.356 0-.646.325-.646.724v1.706c0 .399.29.724.646.724h.776v13.041c0 .399.29.723.646.723h5.637v.13c0 1.183.86 2.146 1.916 2.146h.979l-1.312 7.256a.748.748 0 0 0 .126.569.588.588 0 0 0 .473.251h1.033c.275 0 .518-.207.59-.504l1.845-7.573h2.108l1.844 7.573c.073.297.315.504.59.504h1.033a.587.587 0 0 0 .473-.251.744.744 0 0 0 .126-.569l-1.312-7.257h.979c1.057 0 1.916-.962 1.916-2.145v-3.812c0-1.183-.859-2.146-1.916-2.146h-.506v-.623c0-2.644-1.921-4.795-4.281-4.795a3.95 3.95 0 0 0-2.452.867v-3.385h10.489v13.041c0 .399.29.723.647.723h1.523c.356 0 .646-.324.646-.723v-13.041h.878c.356 0 .646-.325.646-.724v-1.706c0-.399-.29-.724-.646-.724zm-7.45 11.969h.506c.624 0 1.131.568 1.131 1.267v3.812c0 .698-.507 1.267-1.131 1.267h-.506v-6.346zm-10.985 2.458a.36.36 0 0 0-.242-.094h-1.547c-.217 0-.393.197-.393.44 0 .242.176.439.393.439h1.547a.36.36 0 0 0 .242-.094v.922h-5.498v-2.648h5.498v1.035zm.112-1.914h-5.61v-2.534h7.022c.216 0 .392-.196.392-.439s-.176-.439-.392-.439h-7.022V309.297h8.965v.766a5.12 5.12 0 0 0-1.045 3.134v.623h-.506c-.83 0-1.538.595-1.804 1.423zm-5.61-6.825V305.884h8.965v2.534h-8.965zm8.581 20.703h-.688l1.301-7.198h1.14l-1.753 7.198zm7.93 0h-.688l-1.754-7.198h1.141l1.301 7.198zm-4.309-19.84c1.928 0 3.496 1.756 3.496 3.916v7.848H312.519v-1.798c0-.243-.176-.44-.392-.44-.217 0-.393.197-.393.44v1.798h-.506c-.624 0-1.131-.569-1.131-1.267v-3.812c0-.699.507-1.267 1.131-1.267h.506v2.823c0 .242.176.439.393.439.216 0 .392-.197.392-.439v-4.325c0-.973.319-1.863.844-2.548a18 18 0 0 1 .192-.23c.632-.703 1.502-1.138 2.461-1.138zm10.069 9.488h-1.247v-12.885h1.247v12.885zm1.523-13.764h-25.216v-1.396h19.43c.217 0 .392-.197.392-.439 0-.243-.175-.44-.392-.44h-2.367v-1.851h5.005v1.851h-1.148c-.217 0-.393.197-.393.44 0 .242.176.439.393.439h4.296v1.396z"/><path d="M309.07 313.537h-1.547c-.217 0-.393.197-.393.439 0 .243.176.44.393.44h1.547c.217 0 .393-.197.393-.44 0-.242-.176-.439-.393-.439zM309.07 306.712h-1.547c-.217 0-.393.196-.393.439s.176.439.393.439h1.547c.217 0 .393-.196.393-.439s-.176-.439-.393-.439zM309.07 310.124h-1.547c-.217 0-.393.197-.393.44 0 .242.176.439.393.439h1.547c.217 0 .393-.197.393-.439 0-.243-.176-.44-.393-.44z"/></g><path d="M410.189 224.715h-.588v-12.073c0-1.183-.836-2.146-1.864-2.146h-6.474c-1.028 0-1.864.963-1.864 2.146v12.073h-.588c-.758 0-1.374.708-1.374 1.577 0 .713.415 1.317.981 1.511v12.016c0 .373.286.677.638.677h1.471c.352 0 .638-.304.638-.677v-9.675h6.67v5.817c0 .243.176.44.393.44.216 0 .392-.197.392-.44v-5.817h1.177v9.473h-1.177v-1.949c0-.243-.176-.44-.392-.44-.217 0-.393.197-.393.44v2.151c0 .373.286.677.638.677h1.471c.352 0 .638-.304.638-.677v-12.016c.566-.194.981-.798.981-1.511 0-.869-.616-1.577-1.374-1.577zm-9.809 14.902h-1.177v-9.473h1.177v9.473zm9.417-10.727v.376h-10.594v-1.397h10.594v1.021zm.392-1.9h-11.378c-.325 0-.589-.313-.589-.698 0-.385.264-.698.589-.698h2.452c.217 0 .392-.196.392-.439s-.175-.44-.392-.44h-1.079v-12.073c0-.699.484-1.267 1.079-1.267h6.474c.595 0 1.079.568 1.079 1.267v12.073h-6.082c-.216 0-.392.197-.392.44s.176.439.392.439h7.455c.325 0 .589.313.589.698 0 .385-.264.698-.589.698z" fill="#0069FF"/><g fill="#0069FF"><path d="M497.787 54.56h-1.21V42.506h4.168c.399 0 .723-.364.723-.81v-1.352h2.689c.399 0 .724-.363.724-.81v-1.907c0-.447-.325-.81-.724-.81h-18.314c-.399 0-.724.363-.724.81v1.907c0 .447.325.81.724.81h2.689v1.352c0 .446.324.81.723.81h4.168V54.56h-1.21c-1.089 0-1.975.99-1.975 2.208 0 .447.325.81.724.81h4.834c.243 0 .44-.22.44-.492s-.197-.492-.44-.492h-4.668c.076-.593.534-1.05 1.085-1.05h5.574c.552 0 1.009.457 1.085 1.05h-1.369c-.243 0-.44.22-.44.492s.197.492.44.492h1.535c.4 0 .724-.363.724-.81 0-1.218-.886-2.208-1.975-2.208zm-2.089 0h-1.396V42.506h1.396V54.56zm-1.835-13.039h-4.452v-1.177h1.19c.243 0 .44-.22.44-.492s-.197-.492-.44-.492h-4.603v-1.559h18.004v1.559h-11.694c-.243 0-.44.22-.44.492s.197.492.44.492h8.282v1.177h-6.727z"/><path d="M488.402 44.828h-5.248V34.702c0-1.498-1.09-2.717-2.43-2.717-.399 0-.724.363-.724.81v14.114c0 .498.226.937.569 1.197v1.219c0 .387.244.711.569.791v6.843c0 .272.196.492.439.492s.439-.22.439-.492v-3.645h5.378v3.645c0 .272.197.492.439.492.243 0 .44-.22.44-.492v-6.843c.325-.08.569-.404.569-.791v-1.056c.497-.202.853-.735.853-1.36v-.636c0-.797-.58-1.445-1.293-1.445zm-1.008 7.502h-5.378v-2.195h5.378v2.195zm.569-3.179h-6.515v-.796h6.515v.796zm.853-2.242c0 .255-.186.462-.414.462h-7.109c-.229 0-.414-.207-.414-.462V32.978c.783.087 1.396.827 1.396 1.724V45.32c0 .272.197.492.44.492h5.687c.228 0 .414.207.414.461v.636zM509.276 31.985c-1.34 0-2.43 1.219-2.43 2.717v10.126h-5.248c-.713 0-1.293.648-1.293 1.445v.636c0 .625.356 1.158.853 1.36v1.056c0 .387.244.711.569.791v6.843c0 .272.197.492.44.492.242 0 .439-.22.439-.492v-3.645h5.378v3.645c0 .272.196.492.439.492s.439-.22.439-.492v-6.843c.325-.08.569-.404.569-.791v-1.218a1.5 1.5 0 0 0 .569-1.198V32.795c0-.447-.325-.81-.724-.81zm-1.292 20.345h-5.378v-2.195h5.378v2.195zm.568-3.179h-6.515v-.796h6.515v.796zm.569-2.242c0 .255-.185.462-.414.462h-7.109c-.228 0-.414-.207-.414-.462v-.636c0-.254.186-.461.414-.461h5.688c.242 0 .439-.22.439-.492V34.702c0-.897.613-1.637 1.396-1.724v13.931z"/></g><g fill="#0069FF"><path d="M227.556 316.805h1.007c.355 0 .644-.325.644-.724v-3.258h1.37c.355 0 .644-.325.644-.724v-5.403c0-1.183-.853-2.146-1.903-2.146h-.503c-1.05 0-1.903.963-1.903 2.146v9.385c0 .399.289.724.644.724zm1.511-11.376c.2 0 .363.186.363.414 0 .228-.163.414-.363.414-.201 0-.363-.186-.363-.414 0-.228.162-.414.363-.414zm-1.145.505c.042.67.539 1.201 1.145 1.201.605 0 1.102-.531 1.144-1.201.142.212.226.476.226.762v5.248h-1.23v-3.264c0-.243-.175-.439-.392-.439-.217 0-.393.196-.393.439v7.246h-.725v-9.23c0-.286.084-.55.225-.762zM226.347 324.685h-2.517c-.217 0-.393.197-.393.439 0 .243.176.44.393.44h2.517c.217 0 .393-.197.393-.44 0-.242-.176-.439-.393-.439z"/><path d="M234.596 326.846h-.214v-6.784c0-.399-.289-.724-.644-.724h-.363v-16.184h.223c.356 0 .645-.325.645-.724v-1.706c0-.399-.289-.724-.645-.724h-17.623c-.356 0-.645.325-.645.724v1.706c0 .399.289.724.645.724h.223v16.184h-.363c-.356 0-.645.325-.645.724v6.784h-.213c-.36 0-.654.329-.654.732v1.69c0 .403.294.732.654.732h19.619c.36 0 .654-.329.654-.732v-1.69c0-.403-.294-.732-.654-.732zm-18.481-24.571v-1.396h17.343v1.396h-14.022c-.216 0-.392.197-.392.44 0 .242.176.439.392.439h2.655v4.258l-2.395-2.705a.363.363 0 0 0-.555-.003.48.48 0 0 0-.002.622l2.952 3.334v1.808l-1.132-1.28a.364.364 0 0 0-.555-.002.476.476 0 0 0-.002.621l1.689 1.909v7.622h-5.109v-4.231l2.395 2.705c.077.087.178.13.279.13.1 0 .2-.042.276-.127a.478.478 0 0 0 .002-.622l-2.952-3.334v-1.808l1.133 1.279a.369.369 0 0 0 .278.131c.1 0 .2-.043.277-.128a.479.479 0 0 0 .002-.621l-1.69-1.909v-7.649h1.007c.216 0 .392-.197.392-.439 0-.243-.176-.44-.392-.44h-1.874zm16.476 17.063h-9.715v-16.184h9.715v16.184zm-16.616.879h.723a.568.568 0 0 0 .144.019h15.889c.05 0 .098-.007.144-.019h.723v2.818h-17.623v-2.818zm0 3.697h17.623v2.932h-17.623v-2.932zm18.49 5.207h-19.357v-1.396h19.357v1.396z"/><path d="M225.038 307.135c.633 0 1.148-.579 1.148-1.292 0-.713-.515-1.293-1.148-1.293-.633 0-1.147.58-1.147 1.293s.514 1.292 1.147 1.292zm0-1.706c.2 0 .363.186.363.414 0 .228-.163.414-.363.414-.2 0-.363-.186-.363-.414 0-.228.163-.414.363-.414zM226.347 321.045h-2.517c-.217 0-.393.196-.393.439s.176.439.393.439h2.517c.217 0 .393-.196.393-.439s-.176-.439-.393-.439z"/></g><path d="M324.602 236.695v-1.432h.413c.355 0 .644-.324.644-.723v-1.707c0-.399-.289-.724-.644-.724h-.413v-18.898c0-1.497-1.079-2.715-2.405-2.715h-14.394c-1.326 0-2.405 1.218-2.405 2.715v18.898h-.413c-.355 0-.644.325-.644.724v1.707c0 .399.289.723.644.723h.413v1.524c-.785.152-1.384.919-1.384 1.841 0 1.03.748 1.868 1.668 1.868h.216c.92 0 1.668-.838 1.668-1.868 0-.922-.599-1.689-1.384-1.841v-1.524h17.636v1.432c-.788.173-1.384.951-1.384 1.883 0 1.058.768 1.918 1.712 1.918h.128c.944 0 1.712-.86 1.712-1.918 0-.932-.596-1.71-1.384-1.883zm-18.42-23.484c0-1.013.728-1.836 1.621-1.836h14.394c.894 0 1.621.823 1.621 1.836v1.835h-2.537v-.129c0-.243-.176-.44-.393-.44-.216 0-.392.197-.392.44v.129h-3.745v-.129c0-.243-.175-.44-.392-.44-.217 0-.393.197-.393.44v.129h-2.989v-.129c0-.243-.176-.44-.393-.44-.216 0-.392.197-.392.44v.129h-3.996v-.129c0-.243-.176-.44-.393-.44-.217 0-.392.197-.392.44v.129h-1.229v-1.835zm15.572 5.817h-1.731v-.698c0-.385.275-.699.614-.699h.503c.339 0 .614.314.614.699v.698zm-4.529 0h-1.732v-.698c0-.385.276-.699.614-.699h.503c.339 0 .615.314.615.699v.698zm-9.029 7.135H312.192v2.37c0 .404-.293.733-.654.733h-2.689c-.36 0-.654-.329-.654-.733l.001-2.37zm-.001-8.842v-1.396h3.997v1.396h-3.997zm1.259 7.549c0-.228.165-.413.369-.413h.741c.204 0 .37.185.37.413 0 .229-.166.414-.37.414h-.741c-.204 0-.369-.185-.369-.414zm2.203.414c.04-.13.061-.269.061-.414 0-.712-.517-1.292-1.154-1.292h-.741c-.636 0-1.154.58-1.154 1.292 0 .145.022.284.061.414h-.534v-3.102H312.192v3.102h-.535zm-2.203-4.395c0-.228.165-.414.369-.414h.741c.204 0 .37.186.37.414 0 .228-.166.414-.37.414h-.741c-.204 0-.369-.186-.369-.414zm2.203.414c.04-.13.061-.269.061-.414 0-.713-.517-1.293-1.154-1.293h-.741c-.636 0-1.154.58-1.154 1.293 0 .145.022.284.061.414h-.534V218.2h3.996V221.303h-.535zm-4.875 17.325c0 .545-.397.989-.884.989h-.216c-.487 0-.884-.444-.884-.989 0-.434.252-.803.6-.936v.545c0 .242.175.439.392.439.217 0 .392-.197.392-.439v-.545c.348.133.6.502.6.936zm-1.656-4.244v-1.396h3.566c.217 0 .393-.196.393-.439s-.176-.44-.393-.44h-2.51v-16.184h1.229v12.608c0 .889.645 1.611 1.438 1.611h2.689c.793 0 1.439-.722 1.439-1.611V215.925h2.989v.836c-.705.079-1.258.753-1.258 1.569v11.091c0 .242.176.439.393.439.216 0 .392-.197.392-.439v-9.514h1.732v9.359h-.828c-.217 0-.393.196-.393.439s.176.439.393.439h.968c.355 0 .644-.324.644-.723V218.33c0-.816-.552-1.49-1.258-1.569v-.836h3.745v.836c-.706.079-1.258.753-1.258 1.569v11.091c0 .242.175.439.392.439.217 0 .393-.197.393-.439v-9.514h1.731v9.359h-.849c-.217 0-.392.196-.392.439s.175.439.392.439h.99c.355 0 .644-.324.644-.723V218.33c0-.816-.553-1.49-1.258-1.569v-.836h2.537v16.184h-13.7c-.216 0-.392.197-.392.44s.176.439.392.439h14.757v1.396h-19.749zm19.148 5.233h-.128c-.511 0-.928-.466-.928-1.039 0-.444.25-.822.6-.971v.63c0 .242.175.439.392.439.217 0 .392-.197.392-.439v-.63c.35.149.6.527.6.971 0 .573-.417 1.039-.928 1.039zM418.767 130.256h-17.309a3.465 3.465 0 0 0 .865-2.315c0-.386-.246-.71-.573-.787.002-.049.004-.099.004-.149 0-1.304-.962-2.364-2.145-2.364-.696 0-1.314.366-1.707.933-.392-.567-1.011-.933-1.706-.933-1.183 0-2.146 1.06-2.146 2.364 0 .05.002.1.005.149-.327.077-.574.401-.574.787 0 .901.331 1.719.865 2.315h-4.114c-.403 0-.732.368-.732.821v1.839c0 .453.329.821.732.821h.406v10.115c0 .443.324.804.723.804h1.707c.399 0 .724-.361.724-.804v-2.628h21.416v2.628c0 .443.325.804.724.804h1.707c.399 0 .723-.361.723-.804v-10.115h.406c.403 0 .732-.368.732-.821v-1.839c0-.453-.329-.821-.733-.821zm-19.158-4.631c.698 0 1.266.619 1.266 1.38 0 .044-.002.088-.006.132h-2.521a1.457 1.457 0 0 1-.006-.132c0-.761.568-1.38 1.267-1.38zm-3.413 0c.698 0 1.267.619 1.267 1.38 0 .044-.003.088-.007.132h-2.521c-.003-.044-.006-.088-.006-.132 0-.761.568-1.38 1.267-1.38zm5.242 2.496c-.085 1.193-1 2.135-2.114 2.135h-2.844c-1.113 0-2.029-.942-2.113-2.135h7.071zm-8.525 15.551h-1.397v-9.935h1.397v9.935zm22.295-3.432h-21.416v-1.512h15.448c.242 0 .439-.22.439-.492s-.197-.492-.439-.492h-2.367v-.887h5.378v.887h-1.248c-.243 0-.44.22-.44.492s.197.492.44.492h4.205v1.512zm0-2.496h-2.078v-1.068c0-.443-.325-.804-.724-.804h-5.688c-.399 0-.724.361-.724.804v1.068h-12.202v-4.007h21.416v4.007zm2.275 5.928h-1.396v-9.935h1.396v9.935zm1.138-10.92h-28.242v-1.511h28.242v1.511zM238.778 131.468h-1.608v-3.582c0-.962-.707-1.745-1.577-1.745h-9.669c-.447 0-.85.207-1.138.538a1.504 1.504 0 0 0-1.137-.538h-9.669c-.87 0-1.577.783-1.577 1.745v3.582h-1.608c-.556 0-1.009.502-1.009 1.119v8.148c0 .617.453 1.119 1.009 1.119h2.275c.04 0 .08-.004.119-.009a.372.372 0 0 0 .067.008v1.201c0 .444.325.805.724.805h2.844c.399 0 .723-.361.723-.805v-1.2h14.478v1.2c0 .444.325.805.724.805h2.844c.399 0 .724-.361.724-.805v-1.201a.372.372 0 0 0 .067-.008.939.939 0 0 0 .119.009h2.275c.556 0 1.008-.502 1.008-1.119v-8.148c0-.617-.452-1.119-1.008-1.119zm-25.579 3.473c-.454.108-.796.557-.796 1.093v1.88c0 .537.342.986.796 1.094v1.727a.132.132 0 0 1-.129.134h-2.275a.132.132 0 0 1-.13-.134v-8.148c0-.074.058-.135.13-.135h2.275c.071 0 .129.061.129.135v2.354zm3.47 7.934h-2.534v-1.021h2.534v1.021zm18.769 0h-2.534v-1.021h2.534v1.021zm-21.368-2.006a1.19 1.19 0 0 0 .008-.134v-1.702h10.14a.928.928 0 0 0 .568-.196.931.931 0 0 0 .569.196h10.14v1.702c0 .045.003.09.008.134H214.07zm22.221-9.376c-.454.109-.796.558-.796 1.094v2.328h-6.471c-.243 0-.44.221-.44.492 0 .272.197.493.44.493h7.138c.071 0 .129.06.129.134v1.88a.132.132 0 0 1-.129.135h-10.807a.132.132 0 0 1-.129-.135v-1.88c0-.074.058-.134.129-.134h1.977c.242 0 .439-.221.439-.493 0-.271-.197-.492-.439-.492h-1.977a.938.938 0 0 0-.569.196.935.935 0 0 0-.568-.196h-6.627c-.242 0-.439.221-.439.492 0 .272.197.493.439.493h6.627c.071 0 .129.06.129.134v1.88a.132.132 0 0 1-.129.135h-10.807a.132.132 0 0 1-.129-.135v-1.88c0-.074.058-.134.129-.134h2.531c.243 0 .439-.221.439-.493 0-.271-.196-.492-.439-.492h-1.864v-2.328c0-.536-.342-.985-.796-1.094v-3.607c0-.419.313-.761.698-.761h9.669c.385 0 .698.342.698.761v5.578c0 .272.197.493.439.493.243 0 .44-.221.44-.493v-5.578c0-.419.313-.761.698-.761h9.669c.385 0 .698.342.698.761v3.607zm2.617 9.242a.132.132 0 0 1-.13.134h-2.275a.132.132 0 0 1-.129-.134v-1.727c.454-.108.796-.557.796-1.093v-1.881c0-.536-.342-.985-.796-1.093v-2.354c0-.074.058-.135.129-.135h2.275c.072 0 .13.061.13.135v8.148z" fill="#0069FF"/></g></svg>