<svg viewBox="-56 0 480 480" xmlns="http://www.w3.org/2000/svg"><path d="M24 448h8v8c0 13.602 10.398 24 24 24h288c13.602 0 24-10.398 24-24V40c0-13.602-10.398-24-24-24h-24v16h24c4.8 0 8 3.2 8 8v416c0 4.8-3.2 8-8 8H56c-4.8 0-8-3.2-8-8v-8h264c13.602 0 24-10.398 24-24V68.8L267.2 0H24C10.398 0 0 10.398 0 24v400c0 13.602 10.398 24 24 24zM272 27.2L308.8 64H280c-4.8 0-8-3.2-8-8zM16 24c0-4.8 3.2-8 8-8h232v40c0 13.602 10.398 24 24 24h40v344c0 4.8-3.2 8-8 8H24c-4.8 0-8-3.2-8-8zm0 0"/><path d="M168 256h64v16h-64zm0 0M40 256h104v16H40zm0 0M168 296h64v16h-64zm0 0M168 336h64v16h-64zm0 0M40 296h104v16H40zm0 0M40 336h104v16H40zm0 0M40 376h104v16H40zm0 0M168 376h64v16h-64zm0 0M256 256h40v16h-40zm0 0M256 296h40v16h-40zm0 0M256 336h40v16h-40zm0 0M256 376h40v16h-40zm0 0M129.602 152h76l16-56H232V80h-20l-32-40h-24l-32 40h-20v16h9.602zm64-16h-52l-11.204-40h74.403zM164 56h8l19.2 24h-46.4zm0 0M40 216h256v16H40zm0 0M120 176h96v16h-96zm0 0"/></svg>