<svg xmlns="http://www.w3.org/2000/svg" viewBox="0 0 511.38 511.38">
  <path d="M442.37 95.76h-69.44V76.88c0-20.548-7.997-39.855-22.517-54.363C335.893 7.997 316.59 0 296.06 0a76.976 76.976 0 0 0-34.69 8.266A76.976 76.976 0 0 0 226.68 0c-42.387 0-76.87 34.488-76.87 76.88v18.88h-80.8a7.5 7.5 0 0 0-7.5 7.5v62.697c0 4.142 3.357 7.5 7.5 7.5s7.5-3.358 7.5-7.5V110.76h73.3v31.338c-4.107 2.53-6.86 7.055-6.86 12.222 0 7.924 6.442 14.37 14.36 14.37 7.924 0 14.37-6.446 14.37-14.37 0-5.17-2.757-9.696-6.87-12.225V110.76h123.75v31.335c-4.113 2.529-6.87 7.056-6.87 12.225 0 7.924 6.446 14.37 14.37 14.37 7.918 0 14.36-6.446 14.36-14.37 0-5.167-2.753-9.692-6.86-12.222V110.76h73.29v278.079a7.5 7.5 0 0 0 7.5 7.5 7.5 7.5 0 0 0 7.5-7.5V110.76h43.02v55.197c0 4.142 3.357 7.5 7.5 7.5s7.5-3.358 7.5-7.5V103.26a7.5 7.5 0 0 0-7.5-7.5zM164.81 76.88c0-34.121 27.755-61.88 61.87-61.88a62.058 62.058 0 0 1 19.709 3.216C229.353 32.687 219.18 54.14 219.18 76.88v18.88h-54.37V76.88zm69.37 18.88V76.88c0-20.545 10.314-39.791 27.183-51.243a62.166 62.166 0 0 1 9.073 7.486C282.124 44.811 288.56 60.35 288.56 76.88v18.88h-54.38zm46.863-73.243a77.477 77.477 0 0 0-4.687-4.302A62.054 62.054 0 0 1 296.06 15c16.523 0 32.06 6.436 43.749 18.125C351.495 44.802 357.93 60.34 357.93 76.88v18.88h-54.37V76.88c0-20.536-7.997-39.842-22.517-54.363z"/>
  <path d="M442.37 188.456a7.5 7.5 0 0 0-7.5 7.5V473.88c0 12.407-10.094 22.5-22.5 22.5h-28.037a37.307 37.307 0 0 0 7.518-22.5v-55.042a7.5 7.5 0 0 0-7.5-7.5 7.5 7.5 0 0 0-7.5 7.5v55.042c0 12.407-10.094 22.5-22.5 22.5H99.01c-12.406 0-22.5-10.093-22.5-22.5V195.956c0-4.142-3.357-7.5-7.5-7.5s-7.5 3.358-7.5 7.5V473.88c0 20.678 16.822 37.5 37.5 37.5h313.36c20.678 0 37.5-16.822 37.5-37.5V195.956a7.5 7.5 0 0 0-7.5-7.5z"/>
</svg>